<svg width="221" height="50" viewBox="0 0 221 50" fill="none" xmlns="http://www.w3.org/2000/svg">
<path fill-rule="evenodd" clip-rule="evenodd" d="M45.7906 27.1046C44.4805 36.4526 36.91 43.8514 27.3462 45.1317V47.4285C38.199 46.121 46.8029 37.7124 48.1407 27.1046H45.7906Z" fill="#C0C0C0" stroke="#C0C0C0" stroke-width="0.288" stroke-miterlimit="22.9256"/>
<path fill-rule="evenodd" clip-rule="evenodd" d="M21.4292 1C10.5764 2.30751 1.97262 10.7151 0.634766 21.3228H2.98494C4.29502 11.9748 11.8643 4.57604 21.4292 3.29677V1Z" fill="white" stroke="white" stroke-width="0.288" stroke-miterlimit="22.9256"/>
<path fill-rule="evenodd" clip-rule="evenodd" d="M27.3462 3.29676C36.91 4.57604 44.4805 11.9748 45.7906 21.3228H48.1407C46.8029 10.7151 38.199 2.30751 27.3462 0.999996V3.29676Z" fill="white" stroke="white" stroke-width="0.288" stroke-miterlimit="22.9256"/>
<path fill-rule="evenodd" clip-rule="evenodd" d="M21.4292 45.1317V47.4285C10.5764 46.121 1.97262 37.7124 0.634766 27.1046H2.98494C4.29502 36.4526 11.8643 43.8514 21.4292 45.1317Z" fill="white" stroke="white" stroke-width="0.288" stroke-miterlimit="22.9256"/>
<path d="M32.6832 30.0898C32.6832 31.5646 32.3154 32.8428 31.5776 33.9114C30.8409 34.9811 29.783 35.7999 28.4107 36.3689C27.0318 36.938 25.3972 37.2225 23.4893 37.2225C22.5615 37.2225 21.677 37.1703 20.827 37.0715C19.9825 36.9673 19.1803 36.8163 18.4313 36.6187L16.3867 35.8922V32.0468C17.4212 32.4942 18.5747 32.8895 19.8514 33.25C21.1293 33.6041 22.4316 33.7843 23.7505 33.7843C24.8328 33.7843 25.7295 33.6442 26.4428 33.3662C27.1562 33.0871 27.6851 32.6864 28.0363 32.1695C28.3863 31.646 28.5585 31.0423 28.5585 30.3451C28.5585 29.6077 28.3563 28.98 27.9463 28.4695C27.5429 27.9581 26.9306 27.4878 26.1106 27.0578C25.2961 26.6332 24.2672 26.1749 23.0372 25.6873C22.206 25.3561 21.4025 24.9782 20.6425 24.5601C19.8813 24.1365 19.2103 23.6425 18.6158 23.0734C18.0213 22.5044 17.5579 21.83 17.2135 21.0513C16.8746 20.2738 16.7023 19.3561 16.7023 18.2983C16.7023 16.8866 17.0468 15.679 17.7358 14.6799C18.4258 13.6754 19.4002 12.9087 20.6603 12.3744C21.9204 11.839 23.3938 11.5719 25.0761 11.5719C26.4129 11.5719 27.6674 11.7055 28.8441 11.9791L29.1808 12.067L30.9953 16.4229C29.9497 16.0037 28.9397 15.6671 27.9586 15.4173C26.9785 15.1675 25.9739 15.0459 24.9517 15.0459C24.0716 15.0459 23.3227 15.1741 22.7049 15.4347C22.0926 15.7019 21.6226 16.0678 21.3081 16.5445C20.987 17.0148 20.827 17.5784 20.827 18.2289C20.827 18.9554 21.0103 19.5712 21.3737 20.0642C21.7415 20.5583 22.3127 21.0112 23.0794 21.4173C23.8516 21.83 24.8505 22.2828 26.0684 22.7823C27.4707 23.3514 28.6663 23.9498 29.6464 24.5774C30.6275 25.2051 31.3754 25.948 31.8988 26.82C32.4221 27.691 32.6832 28.7823 32.6832 30.0898Z" fill="white"/>
<path d="M76.9813 20.9645C76.9813 22.4349 76.6135 23.7098 75.879 24.7751C75.1445 25.8405 74.09 26.6571 72.7211 27.224C71.3465 27.7919 69.7164 28.0754 67.8152 28.0754C66.8907 28.0754 66.0074 28.0232 65.1595 27.9255C64.3184 27.8212 63.5183 27.6703 62.7727 27.4737L60.7337 26.7494V22.9159C61.7649 23.3623 62.9138 23.7554 64.1884 24.1148C65.4629 24.4678 66.7596 24.647 68.0752 24.647C69.1541 24.647 70.0487 24.5079 70.7598 24.2299C71.471 23.9519 71.9977 23.5534 72.3477 23.0376C72.6977 22.5163 72.8689 21.9136 72.8689 21.2196C72.8689 20.4833 72.6677 19.8579 72.2588 19.3486C71.8554 18.8392 71.2454 18.3701 70.4275 17.9411C69.6164 17.5187 68.5908 17.0615 67.3641 16.575C66.5352 16.2448 65.7351 15.8679 64.9762 15.4509C64.2183 15.0285 63.5483 14.5366 62.9561 13.9686C62.3638 13.4018 61.9015 12.7295 61.557 11.953C61.2192 11.1776 61.0482 10.2622 61.0482 9.20883C61.0482 7.80141 61.3915 6.59699 62.0793 5.60115C62.766 4.5988 63.7383 3.83429 64.994 3.30216C66.2507 2.76895 67.7197 2.50295 69.3964 2.50295C70.7299 2.50295 71.9799 2.63539 73.1533 2.90797L73.49 2.99599L75.299 7.33765C74.2556 6.92063 73.2478 6.5851 72.2711 6.33641C71.2932 6.08772 70.2909 5.96608 69.272 5.96608C68.3953 5.96608 67.6485 6.09317 67.0329 6.3538C66.4218 6.61987 65.954 6.98472 65.6395 7.45929C65.3195 7.92843 65.1595 8.49093 65.1595 9.13926C65.1595 9.86251 65.3439 10.4772 65.705 10.9692C66.0728 11.4611 66.6418 11.9129 67.4063 12.3179C68.1764 12.7295 69.1719 13.1813 70.3864 13.6798C71.7843 14.2466 72.9755 14.8428 73.9533 15.4683C74.9312 16.0938 75.6779 16.8355 76.199 17.7043C76.7202 18.5731 76.9813 19.6613 76.9813 20.9645ZM87.7264 19.3474C87.7619 19.3029 87.6719 15.186 87.7119 15.1448L93.5778 9.00033H98.2658L90.5743 17.0376L98.7692 27.6931H93.9755L87.7264 19.3474ZM85.5429 21.3933V27.6931H81.4604V1.28664H85.5429V14.0848C85.5429 15.7137 85.504 17.2711 85.5429 18.9185V21.3933ZM112.711 16.2621V15.2891C112.711 13.9979 112.403 13.077 111.781 12.5329C111.165 11.9823 110.294 11.7043 109.168 11.7043C108.209 11.7043 107.277 11.8433 106.377 12.1159C105.471 12.3874 104.594 12.7175 103.741 13.1172L102.419 10.2969C103.355 9.8104 104.422 9.41732 105.618 9.10999C106.822 8.80374 108.066 8.6528 109.363 8.6528C111.793 8.6528 113.63 9.17408 114.875 10.222C116.119 11.27 116.74 12.9033 116.74 15.1154V27.6931H113.843L113.061 25.0357H112.919C112.373 25.7188 111.817 26.2748 111.237 26.7146C110.655 27.1609 109.992 27.4912 109.233 27.7105C108.475 27.931 107.551 28.0407 106.46 28.0407C105.316 28.0407 104.292 27.8321 103.391 27.4216C102.491 27.0101 101.773 26.3845 101.257 25.5397C100.736 24.6937 100.476 23.6229 100.476 22.3306C100.476 20.403 101.212 18.9565 102.686 17.9878C104.163 17.0169 106.395 16.4816 109.381 16.3773L110.511 16.3382V18.8468L110.211 18.8566C108.179 18.9228 106.747 19.2649 105.926 19.8698C105.106 20.4758 104.694 21.3054 104.694 22.3599C104.694 23.2808 104.973 23.952 105.542 24.3755C106.111 24.7925 106.857 25.0064 107.782 25.0064C109.192 25.0064 110.365 24.6122 111.295 23.8314C112.231 23.0549 112.693 21.9027 112.693 20.391V18.7751L112.711 16.2621ZM128.712 12.5362C129.434 12.0888 130.314 11.9074 131.495 11.9074C132.774 11.9074 133.729 12.2724 134.339 12.9956C134.956 13.7254 135.258 14.808 135.258 16.2621V27.6931H139.34V15.5031C139.34 13.1118 138.736 11.3688 137.527 10.2795C136.318 9.19681 134.629 8.6528 132.467 8.6528C131.631 8.6528 130.831 8.76242 130.061 8.97636C129.584 9.10994 129.136 9.28157 128.718 9.49442L128.712 12.5362ZM126.53 11.2428V18.4168V27.6931H122.447V9.00033H126.53V11.2428ZM143.37 20.0489V16.6727H152.329V20.0489H143.37ZM156.897 27.6931V2.88516H161.063V24.2299H168.668L170.11 27.6931H156.897ZM189.463 20.8482L188.384 17.3568L185.973 10.5923C185.879 10.2969 185.747 9.8864 185.576 9.34775C185.399 8.81454 185.226 8.27049 185.055 7.70904C184.877 7.15302 184.735 6.68393 184.616 6.29516C184.504 6.75887 184.362 7.27468 184.195 7.84807C184.024 8.41495 183.864 8.94818 183.71 9.44013C183.55 9.93859 183.431 10.3208 183.354 10.5923L180.918 17.3568L179.757 20.8482L177.275 27.6931H172.883L182.33 2.88516H186.945L196.373 27.6931H191.946L189.463 20.8482ZM199.726 2.88516H207.275C210.552 2.88516 213.022 3.34779 214.688 4.27413C216.353 5.20155 217.188 6.79901 217.188 9.0752C217.188 10.0254 217.016 10.8823 216.673 11.6403C216.335 12.4048 215.837 13.0368 215.191 13.5233C214.546 14.0153 213.746 14.3454 212.798 14.5192V14.6864C213.781 14.8547 214.658 15.1556 215.422 15.5846C216.192 16.0189 216.803 16.6325 217.247 17.4372C217.692 18.243 217.917 19.2844 217.917 20.5593C217.917 22.0765 217.549 23.3677 216.815 24.433C216.08 25.4983 215.031 26.3095 213.675 26.859C212.311 27.4151 210.7 27.6931 208.839 27.6931H199.726V2.88516ZM208.099 16.4164L209.421 13.0488C210.388 13.0042 211.314 12.6144 211.808 12.2083C212.536 11.6099 212.898 10.7379 212.898 9.58457C212.898 8.40955 212.466 7.55813 211.607 7.04229C210.741 6.52211 209.372 6.26037 207.5 6.26037H203.892V13.1117L203.915 16.4164L203.892 24.2821H208.282C210.225 24.2821 211.589 23.9172 212.377 23.1766C213.165 22.4414 213.556 21.4455 213.556 20.188C213.556 19.418 213.385 18.7523 213.029 18.1843C212.679 17.6174 212.098 17.1787 211.304 16.8703C210.503 16.5587 209.45 16.4164 208.099 16.4164Z" fill="white"/>
<path d="M61.107 46.8681H60.1358V38.0174H61.107V46.8681ZM65.5295 40.5206C66.2906 40.5206 66.8552 40.6878 67.2218 41.0223C67.5919 41.3578 67.7764 41.8889 67.7764 42.623V46.8681H67.0707L66.8862 45.9505H66.8385C66.6596 46.1775 66.4729 46.3675 66.2807 46.5206C66.0863 46.6738 65.8617 46.791 65.6073 46.8681C65.3528 46.9452 65.044 46.9843 64.674 46.9843C64.2873 46.9843 63.9428 46.9181 63.6417 46.7845C63.3417 46.6531 63.105 46.451 62.9328 46.1806C62.7594 45.9113 62.6727 45.5693 62.6727 45.1566C62.6727 44.5354 62.925 44.0554 63.4283 43.722C63.9328 43.3876 64.7017 43.2051 65.7328 43.1747L66.8329 43.1302V42.7469C66.8329 42.2061 66.7162 41.8259 66.4773 41.6098C66.2407 41.3926 65.9073 41.284 65.4784 41.284C65.145 41.284 64.825 41.3308 64.5228 41.4253C64.2217 41.5208 63.9328 41.6316 63.6616 41.7619L63.365 41.0452C63.6528 40.8997 63.9828 40.7769 64.354 40.6748C64.7273 40.5717 65.1195 40.5206 65.5295 40.5206ZM66.8207 43.7958L65.8496 43.8339C65.0551 43.8654 64.4939 43.9936 64.1672 44.2173C63.8416 44.4399 63.6794 44.7581 63.6794 45.1675C63.6794 45.5248 63.7905 45.7887 64.0105 45.9603C64.2327 46.1308 64.525 46.2154 64.8906 46.2154C65.4561 46.2154 65.9196 46.0624 66.2807 45.7561C66.6407 45.4477 66.8207 44.985 66.8207 44.3703V43.7958ZM72.7855 40.5206C73.5422 40.5206 74.1133 40.702 74.5011 41.0647C74.89 41.4252 75.0834 42.0084 75.0834 42.8077V46.8681H74.13V42.8696C74.13 42.3494 74.0089 41.9617 73.7667 41.7032C73.5245 41.4469 73.1522 41.3167 72.6522 41.3167C71.9455 41.3167 71.4488 41.5132 71.1621 41.903C70.8743 42.2929 70.732 42.8598 70.732 43.6037V46.8681H69.7665V40.6379H70.5454L70.692 41.5327H70.7432C70.8788 41.3133 71.051 41.1288 71.2621 40.9789C71.4699 40.8301 71.7043 40.715 71.9643 40.6379C72.2254 40.5597 72.4988 40.5206 72.7855 40.5206ZM79.3425 46.9843C78.5358 46.9843 77.8969 46.715 77.4258 46.1775C76.9557 45.6377 76.719 44.8373 76.719 43.7763C76.719 42.7023 76.9591 41.8911 77.4402 41.3438C77.9225 40.7943 78.5625 40.5206 79.3603 40.5206C79.6981 40.5206 79.9915 40.564 80.2437 40.6509C80.496 40.7388 80.7148 40.8551 80.8982 41.0028C81.0782 41.1483 81.2316 41.3134 81.356 41.4991H81.426C81.4104 41.3807 81.396 41.22 81.3804 41.0158C81.3649 40.8106 81.356 40.6433 81.356 40.5151V38.0174H82.3216V46.8681H81.5426L81.3982 45.9831H81.356C81.2349 46.1698 81.0848 46.3382 80.8993 46.4891C80.7148 46.6412 80.4959 46.7617 80.2426 46.8508C79.9881 46.9398 79.6881 46.9843 79.3425 46.9843ZM79.4937 46.2003C80.1771 46.2003 80.6593 46.0102 80.9438 45.6301C81.2271 45.2511 81.3682 44.6886 81.3682 43.9415V43.7699C81.3682 42.976 81.2337 42.3689 80.9637 41.9443C80.6926 41.5186 80.2049 41.3057 79.4937 41.3057C78.9014 41.3057 78.4569 41.5284 78.1625 41.9747C77.8669 42.4189 77.7202 43.0292 77.7202 43.797C77.7202 44.5637 77.8669 45.1566 78.1591 45.5736C78.4525 45.9906 78.8981 46.2003 79.4937 46.2003ZM88.4898 45.1642C88.4898 45.5617 88.3886 45.8973 88.1842 46.1677C87.982 46.4392 87.6897 46.6433 87.3119 46.7791C86.9329 46.917 86.4819 46.9843 85.9574 46.9843C85.5129 46.9843 85.1274 46.9496 84.7996 46.8823C84.474 46.8139 84.1906 46.7171 83.9461 46.5922V45.7224C84.2061 45.8473 84.5161 45.9613 84.8773 46.0623C85.2373 46.1654 85.6062 46.2154 85.9818 46.2154C86.5341 46.2154 86.933 46.1286 87.1808 45.9559C87.4297 45.7811 87.553 45.5421 87.553 45.2435C87.553 45.073 87.503 44.921 87.4041 44.7918C87.3063 44.6615 87.1397 44.5332 86.9074 44.4105C86.6752 44.2867 86.3529 44.151 85.9418 44.0033C85.5351 43.8512 85.1806 43.7003 84.8851 43.5504C84.5873 43.4017 84.3595 43.2171 84.1984 43.002C84.0373 42.7859 83.9573 42.5047 83.9573 42.1594C83.9573 41.6337 84.1739 41.2275 84.6117 40.9441C85.0484 40.6628 85.6218 40.5206 86.3307 40.5206C86.714 40.5206 87.0741 40.5575 87.4096 40.6314C87.7452 40.7052 88.0586 40.804 88.3509 40.9311L88.0231 41.6881C87.7608 41.5773 87.4786 41.4839 87.1808 41.4079C86.8808 41.3329 86.5774 41.2938 86.2674 41.2938C85.8207 41.2938 85.4796 41.3676 85.2407 41.511C85.0029 41.6543 84.8817 41.8531 84.8817 42.1028C84.8817 42.295 84.9373 42.4558 85.0484 42.5807C85.1595 42.7067 85.3362 42.8229 85.5806 42.9336C85.8251 43.0444 86.1463 43.1725 86.5452 43.3202C86.9463 43.4635 87.2907 43.6135 87.5818 43.7666C87.8719 43.9219 88.0964 44.1065 88.2542 44.3259C88.4109 44.5431 88.4898 44.8222 88.4898 45.1642ZM91.0021 38.0174V42.6155C91.0021 42.7664 90.9965 42.951 90.9843 43.1704C90.972 43.3875 90.9643 43.5798 90.9565 43.7471H90.9965C91.0776 43.6482 91.1965 43.5027 91.3543 43.3104C91.511 43.1161 91.6432 42.9608 91.7532 42.8424L93.8701 40.6379H95.0057L92.44 43.2986L95.1912 46.8681H94.0289L91.7765 43.9175L91.0021 44.6103V46.8681H90.0431V38.0174H91.0021ZM98.688 40.5206C99.4492 40.5206 100.014 40.6878 100.38 41.0223C100.75 41.3578 100.935 41.8889 100.935 42.623V46.8681H100.229L100.045 45.9505H99.997C99.8181 46.1775 99.6315 46.3675 99.4393 46.5206C99.2448 46.6738 99.0203 46.791 98.7659 46.8681C98.5114 46.9452 98.2024 46.9843 97.8324 46.9843C97.4457 46.9843 97.1014 46.9181 96.8002 46.7845C96.5002 46.6531 96.2635 46.451 96.0912 46.1806C95.9179 45.9113 95.8312 45.5693 95.8312 45.1566C95.8312 44.5354 96.0834 44.0554 96.5868 43.722C97.0913 43.3876 97.8602 43.2051 98.8914 43.1747L99.9915 43.1302V42.7469C99.9915 42.2061 99.8748 41.8259 99.6359 41.6098C99.3992 41.3926 99.0658 41.284 98.6369 41.284C98.3036 41.284 97.9836 41.3308 97.6814 41.4253C97.3802 41.5208 97.0913 41.6316 96.8202 41.7619L96.5235 41.0452C96.8113 40.8997 97.1413 40.7769 97.5124 40.6748C97.8858 40.5717 98.278 40.5206 98.688 40.5206ZM99.9792 43.7958L99.008 43.8339C98.2136 43.8654 97.6525 43.9936 97.3258 44.2173C97.0002 44.4399 96.838 44.7581 96.838 45.1675C96.838 45.5248 96.9491 45.7887 97.1691 45.9603C97.3913 46.1308 97.6835 46.2154 98.0491 46.2154C98.6147 46.2154 99.0782 46.0624 99.4393 45.7561C99.7993 45.4477 99.9792 44.985 99.9792 44.3703V43.7958ZM105.922 40.5206C106.716 40.5206 107.35 40.7888 107.824 41.3231C108.298 41.8585 108.533 42.6621 108.533 43.7351C108.533 44.4453 108.424 45.0393 108.207 45.5226C107.991 46.0048 107.685 46.3674 107.29 46.614C106.897 46.8605 106.432 46.9843 105.899 46.9843C105.561 46.9843 105.263 46.9419 105.008 46.854C104.752 46.7671 104.532 46.6487 104.348 46.501C104.168 46.3533 104.017 46.1926 103.896 46.0177H103.826C103.838 46.1654 103.853 46.3436 103.871 46.5521C103.888 46.7596 103.896 46.9419 103.896 47.0972V49.6515H102.925V40.6379H103.722L103.851 41.5555H103.896C104.022 41.3676 104.172 41.1928 104.351 41.0353C104.527 40.8778 104.746 40.7541 105.004 40.6607C105.263 40.5673 105.569 40.5206 105.922 40.5206ZM105.753 41.3167C105.31 41.3167 104.955 41.4002 104.684 41.5675C104.414 41.7347 104.217 41.9845 104.095 42.3168C103.969 42.6481 103.904 43.0639 103.896 43.5645V43.7471C103.896 44.2748 103.956 44.719 104.073 45.0838C104.192 45.4487 104.388 45.7246 104.661 45.9147C104.935 46.1058 105.302 46.2003 105.763 46.2003C106.16 46.2003 106.49 46.0959 106.752 45.8863C107.016 45.6778 107.213 45.3868 107.344 45.0122C107.473 44.6397 107.539 44.2086 107.539 43.7243C107.539 42.988 107.392 42.4037 107.1 41.9693C106.805 41.5338 106.356 41.3167 105.753 41.3167ZM118.808 43.7415C118.808 44.253 118.74 44.7092 118.606 45.1132C118.469 45.515 118.274 45.8548 118.018 46.1307C117.761 46.4076 117.451 46.6195 117.09 46.765C116.727 46.9105 116.316 46.9843 115.859 46.9843C115.432 46.9843 115.041 46.9105 114.688 46.765C114.332 46.6195 114.026 46.4076 113.768 46.1307C113.51 45.8548 113.309 45.515 113.168 45.1132C113.027 44.7092 112.956 44.253 112.956 43.7415C112.956 43.0574 113.074 42.4775 113.311 41.9986C113.548 41.5164 113.885 41.1515 114.326 40.8996C114.767 40.6476 115.291 40.5206 115.899 40.5206C116.48 40.5206 116.991 40.6477 117.426 40.9018C117.862 41.1559 118.202 41.5229 118.445 42.004C118.687 42.4829 118.808 43.0617 118.808 43.7415ZM113.957 43.7415C113.957 44.2422 114.025 44.6766 114.159 45.0437C114.296 45.4118 114.505 45.6974 114.789 45.8973C115.07 46.0993 115.436 46.2003 115.882 46.2003C116.324 46.2003 116.687 46.0993 116.974 45.8973C117.259 45.6974 117.468 45.4118 117.605 45.0437C117.74 44.6766 117.807 44.2422 117.807 43.7415C117.807 43.2442 117.74 42.8153 117.605 42.4526C117.468 42.0899 117.259 41.8096 116.976 41.6141C116.694 41.4154 116.326 41.3167 115.877 41.3167C115.213 41.3167 114.727 41.5328 114.419 41.9596C114.111 42.3885 113.957 42.9825 113.957 43.7415ZM122.257 49.6634C121.419 49.6634 120.774 49.5103 120.322 49.2051C119.866 48.9 119.64 48.4732 119.64 47.9237C119.64 47.5338 119.767 47.2004 120.022 46.9246C120.276 46.6466 120.627 46.462 121.078 46.3729C120.912 46.298 120.768 46.1829 120.649 46.0319C120.532 45.8799 120.473 45.7051 120.473 45.5074C120.473 45.2804 120.538 45.0806 120.667 44.9079C120.796 44.7352 120.995 44.5702 121.263 44.4105C120.929 44.2791 120.659 44.0533 120.453 43.7394C120.244 43.4223 120.14 43.0564 120.14 42.635C120.14 42.1908 120.236 41.8097 120.425 41.4937C120.615 41.1777 120.892 40.9365 121.25 40.7715C121.612 40.6042 122.049 40.5206 122.562 40.5206C122.673 40.5206 122.786 40.525 122.901 40.5347C123.016 40.5445 123.125 40.5576 123.228 40.5749C123.334 40.5934 123.425 40.6118 123.503 40.6357H125.692V41.2428L124.516 41.3851C124.633 41.5328 124.728 41.7108 124.806 41.9182C124.883 42.1267 124.923 42.3548 124.923 42.61C124.923 43.229 124.708 43.7198 124.277 44.0847C123.846 44.4496 123.255 44.6321 122.502 44.6321C122.323 44.6321 122.143 44.6168 121.956 44.5875C121.765 44.6885 121.62 44.8026 121.523 44.9275C121.424 45.0535 121.374 45.1968 121.374 45.3597C121.374 45.4824 121.412 45.5768 121.487 45.6507C121.563 45.7224 121.672 45.7757 121.817 45.8061C121.959 45.8397 122.133 45.8548 122.333 45.8548H123.457C124.151 45.8548 124.683 45.9961 125.054 46.2817C125.423 46.5651 125.61 46.9811 125.61 47.5262C125.61 48.2147 125.322 48.7446 124.748 49.1117C124.174 49.4788 123.344 49.6634 122.257 49.6634ZM122.287 48.9239C122.816 48.9239 123.253 48.8717 123.598 48.7685C123.946 48.6632 124.206 48.5145 124.378 48.3179C124.552 48.1235 124.637 47.8911 124.637 47.6228C124.637 47.3731 124.58 47.1841 124.464 47.056C124.347 46.93 124.176 46.8453 123.952 46.8019C123.725 46.7574 123.452 46.7356 123.125 46.7356H122.019C121.733 46.7356 121.483 46.7812 121.268 46.8659C121.056 46.9539 120.892 47.0831 120.778 47.2525C120.663 47.423 120.605 47.637 120.605 47.8889C120.605 48.2267 120.75 48.4829 121.043 48.6599C121.332 48.8358 121.747 48.9239 122.287 48.9239ZM122.537 43.9425C122.998 43.9425 123.346 43.8306 123.578 43.6037C123.811 43.3778 123.928 43.0487 123.928 42.6133C123.928 42.1495 123.808 41.7998 123.573 41.5696C123.336 41.3361 122.986 41.2199 122.526 41.2199C122.083 41.2199 121.743 41.3405 121.505 41.5805C121.266 41.8194 121.147 42.1691 121.147 42.6307C121.147 43.052 121.266 43.3778 121.507 43.6037C121.747 43.8306 122.09 43.9425 122.537 43.9425ZM132.429 40.5206C133.19 40.5206 133.754 40.6878 134.121 41.0223C134.491 41.3578 134.676 41.8889 134.676 42.623V46.8681H133.97L133.786 45.9505H133.738C133.559 46.1775 133.372 46.3675 133.18 46.5206C132.986 46.6738 132.761 46.791 132.507 46.8681C132.252 46.9452 131.943 46.9843 131.573 46.9843C131.187 46.9843 130.842 46.9181 130.541 46.7845C130.241 46.6531 130.004 46.451 129.832 46.1806C129.659 45.9113 129.572 45.5693 129.572 45.1566C129.572 44.5354 129.824 44.0554 130.328 43.722C130.832 43.3876 131.601 43.2051 132.632 43.1747L133.732 43.1302V42.7469C133.732 42.2061 133.616 41.8259 133.377 41.6098C133.14 41.3926 132.807 41.284 132.378 41.284C132.044 41.284 131.724 41.3308 131.422 41.4253C131.121 41.5208 130.832 41.6316 130.561 41.7619L130.264 41.0452C130.552 40.8997 130.882 40.7769 131.253 40.6748C131.627 40.5717 132.019 40.5206 132.429 40.5206ZM133.72 43.7958L132.749 43.8339C131.954 43.8654 131.393 43.9936 131.067 44.2173C130.741 44.4399 130.579 44.7581 130.579 45.1675C130.579 45.5248 130.69 45.7887 130.91 45.9603C131.132 46.1308 131.424 46.2154 131.79 46.2154C132.356 46.2154 132.819 46.0624 133.18 45.7561C133.54 45.4477 133.72 44.985 133.72 44.3703V43.7958ZM139.564 40.5206C139.69 40.5206 139.826 40.5271 139.965 40.5402C140.104 40.5543 140.228 40.5717 140.336 40.5945L140.215 41.4697C140.109 41.4447 139.994 41.4242 139.865 41.4079C139.738 41.3927 139.617 41.3851 139.504 41.3851C139.247 41.3851 139.007 41.435 138.78 41.536C138.553 41.637 138.354 41.7804 138.183 41.9693C138.013 42.155 137.879 42.382 137.781 42.6448C137.685 42.9086 137.637 43.2018 137.637 43.5233V46.8681H136.666V40.6379H137.468L137.574 41.7824H137.612C137.746 41.5511 137.905 41.3405 138.089 41.1505C138.276 40.9583 138.493 40.8041 138.739 40.6922C138.986 40.5771 139.259 40.5206 139.564 40.5206ZM142.495 38.0174V42.6155C142.495 42.7664 142.489 42.951 142.477 43.1704C142.465 43.3875 142.457 43.5798 142.449 43.7471H142.489C142.571 43.6482 142.689 43.5027 142.847 43.3104C143.004 43.1161 143.136 42.9608 143.246 42.8424L145.363 40.6379H146.499L143.933 43.2986L146.684 46.8681H145.522L143.269 43.9175L142.495 44.6103V46.8681H141.536V38.0174H142.495ZM148.762 40.6379V46.8681H147.796V40.6379H148.762ZM148.291 38.3019C148.45 38.3019 148.586 38.353 148.7 38.454C148.815 38.555 148.873 38.7103 148.873 38.9232C148.873 39.1317 148.815 39.287 148.7 39.3891C148.586 39.4922 148.45 39.5433 148.291 39.5433C148.124 39.5433 147.985 39.4922 147.874 39.3891C147.764 39.287 147.709 39.1317 147.709 38.9232C147.709 38.7103 147.764 38.555 147.874 38.454C147.985 38.353 148.124 38.3019 148.291 38.3019ZM152.865 46.2121C153.023 46.2121 153.187 46.198 153.353 46.1709C153.52 46.1437 153.656 46.1134 153.76 46.0743V46.8084C153.648 46.8583 153.492 46.8996 153.292 46.9343C153.093 46.9669 152.897 46.9843 152.708 46.9843C152.37 46.9843 152.064 46.9268 151.789 46.8116C151.512 46.6954 151.292 46.4989 151.127 46.222C150.962 45.9462 150.881 45.5617 150.881 45.073V41.3774H149.973V40.917L150.887 40.5466L151.27 39.1935H151.852V40.6379H153.719V41.3774H151.852V45.0459C151.852 45.4357 151.943 45.7267 152.128 45.9211C152.312 46.1155 152.559 46.2121 152.865 46.2121ZM157.508 40.5206C158.05 40.5206 158.517 40.639 158.905 40.8746C159.291 41.1092 159.589 41.4393 159.794 41.8618C160 42.2853 160.104 42.7805 160.104 43.3474V43.9338H155.699C155.711 44.6647 155.896 45.2207 156.257 45.603C156.618 45.9852 157.127 46.1775 157.783 46.1775C158.186 46.1775 158.543 46.1405 158.853 46.0689C159.163 45.9961 159.484 45.8918 159.818 45.7495V46.5803C159.496 46.7204 159.176 46.8236 158.86 46.8877C158.545 46.9518 158.171 46.9843 157.74 46.9843C157.129 46.9843 156.595 46.8627 156.138 46.6172C155.682 46.3729 155.328 46.0146 155.076 45.5389C154.825 45.0654 154.698 44.4844 154.698 43.797C154.698 43.1281 154.813 42.5459 155.043 42.0539C155.276 41.5631 155.601 41.1852 156.022 40.9192C156.441 40.6531 156.938 40.5206 157.508 40.5206ZM157.496 41.2938C156.98 41.2938 156.569 41.4599 156.262 41.7901C155.957 42.1224 155.775 42.5839 155.717 43.1758H159.092C159.087 42.8033 159.027 42.4754 158.914 42.1919C158.799 41.9085 158.626 41.6891 158.391 41.5306C158.159 41.3731 157.861 41.2938 157.496 41.2938ZM162.704 38.0174V42.6155C162.704 42.7664 162.698 42.951 162.686 43.1704C162.674 43.3875 162.666 43.5798 162.658 43.7471H162.698C162.78 43.6482 162.898 43.5027 163.056 43.3104C163.213 43.1161 163.345 42.9608 163.455 42.8424L165.572 40.6379H166.708L164.142 43.2986L166.893 46.8681H165.731L163.478 43.9175L162.704 44.6103V46.8681H161.745V38.0174H162.704ZM170.064 46.2121C170.223 46.2121 170.387 46.198 170.553 46.1709C170.72 46.1437 170.855 46.1134 170.96 46.0743V46.8084C170.848 46.8583 170.692 46.8996 170.492 46.9343C170.293 46.9669 170.097 46.9843 169.908 46.9843C169.57 46.9843 169.264 46.9268 168.989 46.8116C168.712 46.6954 168.492 46.4989 168.326 46.222C168.162 45.9462 168.081 45.5617 168.081 45.073V41.3774H167.173V40.917L168.086 40.5466L168.47 39.1935H169.052V40.6379H170.919V41.3774H169.052V45.0459C169.052 45.4357 169.143 45.7267 169.328 45.9211C169.512 46.1155 169.759 46.2121 170.064 46.2121ZM177.518 40.6379V46.8681H176.728L176.587 45.9949H176.535C176.404 46.21 176.234 46.3925 176.023 46.5401C175.815 46.69 175.578 46.7997 175.316 46.8736C175.054 46.9474 174.776 46.9843 174.481 46.9843C173.977 46.9843 173.555 46.905 173.212 46.7454C172.871 46.5868 172.614 46.3403 172.442 46.0059C172.269 45.6725 172.183 45.2435 172.183 44.7211V40.6379H173.161V44.6538C173.161 45.1718 173.28 45.5595 173.52 45.8158C173.76 46.0721 174.128 46.2003 174.62 46.2003C175.094 46.2003 175.47 46.1134 175.752 45.9385C176.032 45.7637 176.237 45.5074 176.36 45.1675C176.486 44.8287 176.547 44.4127 176.547 43.9197V40.6379H177.518ZM182.46 40.5206C182.586 40.5206 182.722 40.5271 182.861 40.5402C183 40.5543 183.124 40.5717 183.232 40.5945L183.111 41.4697C183.005 41.4447 182.89 41.4242 182.761 41.4079C182.634 41.3927 182.513 41.3851 182.4 41.3851C182.143 41.3851 181.903 41.435 181.676 41.536C181.448 41.637 181.249 41.7804 181.078 41.9693C180.908 42.155 180.775 42.382 180.677 42.6448C180.581 42.9086 180.533 43.2018 180.533 43.5233V46.8681H179.562V40.6379H180.364L180.469 41.7824H180.508C180.642 41.5511 180.8 41.3405 180.985 41.1505C181.172 40.9583 181.388 40.8041 181.635 40.6922C181.882 40.5771 182.155 40.5206 182.46 40.5206ZM189.587 46.2121C189.745 46.2121 189.909 46.198 190.076 46.1709C190.242 46.1437 190.378 46.1134 190.482 46.0743V46.8084C190.37 46.8583 190.214 46.8996 190.014 46.9343C189.816 46.9669 189.619 46.9843 189.43 46.9843C189.092 46.9843 188.787 46.9268 188.511 46.8116C188.234 46.6954 188.014 46.4989 187.849 46.222C187.684 45.9462 187.603 45.5617 187.603 45.073V41.3774H186.695V40.917L187.609 40.5466L187.992 39.1935H188.574V40.6379H190.441V41.3774H188.574V45.0459C188.574 45.4357 188.665 45.7267 188.85 45.9211C189.034 46.1155 189.281 46.2121 189.587 46.2121ZM192.741 40.6379V46.8681H191.776V40.6379H192.741ZM192.27 38.3019C192.429 38.3019 192.566 38.353 192.679 38.454C192.795 38.555 192.852 38.7103 192.852 38.9232C192.852 39.1317 192.795 39.287 192.679 39.3891C192.566 39.4922 192.429 39.5433 192.27 39.5433C192.103 39.5433 191.965 39.4922 191.853 39.3891C191.743 39.287 191.688 39.1317 191.688 38.9232C191.688 38.7103 191.743 38.555 191.853 38.454C191.965 38.353 192.103 38.3019 192.27 38.3019ZM195.756 46.8681H194.785V38.0174H195.756V46.8681ZM201.034 38.5529H203.443C204.506 38.5529 205.304 38.7081 205.841 39.0187C206.375 39.3293 206.643 39.8593 206.643 40.6064C206.643 40.929 206.58 41.2178 206.454 41.4719C206.327 41.7282 206.144 41.9399 205.904 42.1072C205.664 42.2733 205.367 42.3906 205.014 42.4547V42.5101C205.385 42.5665 205.715 42.6719 206.003 42.8228C206.29 42.9759 206.515 43.1878 206.679 43.4615C206.842 43.733 206.923 44.0804 206.923 44.5017C206.923 45.0143 206.802 45.4455 206.56 45.7984C206.317 46.1514 205.973 46.4174 205.533 46.5988C205.09 46.7791 204.565 46.8681 203.962 46.8681H201.034V38.5529ZM202.023 42.1181H203.652C204.393 42.1181 204.907 41.9986 205.191 41.7596C205.478 41.5207 205.62 41.1733 205.62 40.7128C205.62 40.2393 205.45 39.8983 205.11 39.6898C204.77 39.4824 204.23 39.3781 203.49 39.3781H202.023V42.1181ZM202.023 42.9314V46.0428H203.793C204.547 46.0428 205.084 45.8972 205.397 45.6084C205.712 45.3195 205.871 44.9275 205.871 44.4345C205.871 44.1196 205.799 43.8502 205.657 43.6265C205.515 43.4017 205.286 43.2312 204.971 43.1106C204.655 42.9923 204.232 42.9314 203.705 42.9314H202.023ZM208.732 46.8681V38.5529H209.721V46.8681H208.732ZM215.804 46.8681L212.946 39.5074H212.9C212.916 39.6627 212.928 39.8538 212.939 40.0764C212.951 40.3012 212.961 40.5445 212.969 40.8084C212.977 41.0723 212.981 41.3405 212.981 41.612V46.8681H212.061V38.5529H213.527L216.223 45.4683H216.263L218.997 38.5529H220.453V46.8681H219.474V41.5436C219.474 41.2971 219.477 41.0506 219.485 40.803C219.494 40.5543 219.504 40.3197 219.515 40.0981C219.527 39.8744 219.539 39.6822 219.549 39.5193H219.504L216.611 46.8681H215.804Z" fill="white"/>
</svg>
