<svg  width="151" height="49" viewBox="0 0 221 49" fill="none" xmlns="http://www.w3.org/2000/svg">
<path fill-rule="evenodd" clip-rule="evenodd" d="M45.8856 26.4063C44.5755 35.7544 37.005 43.1531 27.4412 44.4334V46.7303C38.294 45.4228 46.8979 37.0141 48.2357 26.4063H45.8856Z" fill="black" stroke="black" stroke-width="0.288" stroke-miterlimit="22.9256"/>
<path fill-rule="evenodd" clip-rule="evenodd" d="M21.524 0.301804C10.6712 1.60931 2.06741 10.0169 0.729553 20.6246H3.07973C4.3898 11.2766 11.959 3.87784 21.524 2.59857V0.301804Z" fill="#C0C0C0" stroke="#C0C0C0" stroke-width="0.288" stroke-miterlimit="22.9256"/>
<path fill-rule="evenodd" clip-rule="evenodd" d="M27.4412 2.59858C37.005 3.87786 44.5755 11.2766 45.8856 20.6246H48.2357C46.8979 10.0169 38.294 1.60933 27.4412 0.301819V2.59858Z" fill="#C0C0C0" stroke="#C0C0C0" stroke-width="0.288" stroke-miterlimit="22.9256"/>
<path fill-rule="evenodd" clip-rule="evenodd" d="M21.524 44.4334V46.7303C10.6712 45.4228 2.06741 37.0141 0.729553 26.4063H3.07973C4.3898 35.7544 11.959 43.1531 21.524 44.4334Z" fill="#C0C0C0" stroke="#C0C0C0" stroke-width="0.288" stroke-miterlimit="22.9256"/>
<path   d="M32.778 29.3917C32.778 30.8665 32.4102 32.1446 31.6724 33.2132C30.9357 34.2829 29.8778 35.1017 28.5055 35.6707C27.1266 36.2398 25.492 36.5244 23.5842 36.5244C22.6563 36.5244 21.7718 36.4723 20.9218 36.3734C20.0773 36.2692 19.2751 36.1182 18.5261 35.9206L16.4815 35.194V31.3486C17.516 31.796 18.6694 32.1913 19.9461 32.5519C21.224 32.9059 22.5264 33.0862 23.8453 33.0862C24.9276 33.0862 25.8243 32.9461 26.5377 32.6681C27.251 32.389 27.7799 31.9882 28.1311 31.4713C28.4811 30.9479 28.6533 30.3441 28.6533 29.6469C28.6533 28.9095 28.4511 28.2819 28.0411 27.7715C27.6378 27.26 27.0254 26.7897 26.2054 26.3597C25.3909 25.9351 24.362 25.4768 23.132 24.9892C22.3008 24.658 21.4974 24.2801 20.7373 23.862C19.9762 23.4384 19.3051 22.9443 18.7106 22.3752C18.1161 21.8062 17.6528 21.1318 17.3083 20.3531C16.9694 19.5756 16.7971 18.658 16.7971 17.6002C16.7971 16.1885 17.1416 14.9808 17.8306 13.9818C18.5206 12.9772 19.495 12.2106 20.7551 11.6763C22.0152 11.1409 23.4886 10.8737 25.1709 10.8737C26.5077 10.8737 27.7622 11.0073 28.9389 11.2809L29.2757 11.369L31.0901 15.7247C30.0445 15.3055 29.0345 14.9689 28.0534 14.7191C27.0733 14.4694 26.0688 14.3477 25.0465 14.3477C24.1664 14.3477 23.4175 14.4759 22.7997 14.7365C22.1875 15.0037 21.7174 15.3696 21.4029 15.8464C21.0818 16.3166 20.9218 16.8802 20.9218 17.5307C20.9218 18.2572 21.1051 18.873 21.4685 19.366C21.8363 19.8601 22.4075 20.313 23.1742 20.7191C23.9465 21.1318 24.9453 21.5847 26.1632 22.0842C27.5655 22.6533 28.7611 23.2516 29.7412 23.8793C30.7224 24.5069 31.4702 25.2498 31.9936 26.1218C32.517 26.9928 32.778 28.0842 32.778 29.3917V29.3917Z" fill="black"/>
<path   d="M77.0761 20.2663C77.0761 21.7367 76.7083 23.0116 75.9738 24.0769C75.2393 25.1423 74.1848 25.9589 72.8159 26.5258C71.4413 27.0937 69.8112 27.3772 67.91 27.3772C66.9855 27.3772 66.1021 27.325 65.2542 27.2273C64.4131 27.1231 63.6131 26.9722 62.8675 26.7756L60.8285 26.0512V22.2177C61.8597 22.6641 63.0086 23.0572 64.2831 23.4167C65.5577 23.7696 66.8543 23.9488 68.17 23.9488C69.2489 23.9488 70.1434 23.8098 70.8546 23.5318C71.5657 23.2538 72.0924 22.8552 72.4425 22.3394C72.7925 21.8181 72.9637 21.2154 72.9637 20.5214C72.9637 19.7851 72.7625 19.1597 72.3536 18.6504C71.9502 18.141 71.3401 17.6719 70.5223 17.243C69.7112 16.8205 68.6856 16.3633 67.4589 15.8768C66.63 15.5467 65.8299 15.1698 65.071 14.7527C64.3131 14.3303 63.6431 13.8384 63.0509 13.2705C62.4586 12.7036 61.9963 12.0313 61.6518 11.2548C61.314 10.4795 61.1429 9.56403 61.1429 8.51064C61.1429 7.10322 61.4863 5.89891 62.1741 4.90307C62.8608 3.90072 63.8331 3.1362 65.0887 2.60408C66.3455 2.07087 67.8145 1.80476 69.4912 1.80476C70.8246 1.80476 72.0747 1.9372 73.2481 2.20978L73.5848 2.2978L75.3937 6.63946C74.3503 6.22244 73.3425 5.88691 72.3657 5.63822C71.3879 5.38953 70.3857 5.26789 69.3668 5.26789C68.4901 5.26789 67.7433 5.39498 67.1277 5.65561C66.5166 5.92168 66.0488 6.28653 65.7343 6.7611C65.4143 7.23024 65.2542 7.79285 65.2542 8.44117C65.2542 9.16443 65.4387 9.77905 65.7998 10.271C66.1676 10.7629 66.7366 11.2147 67.5011 11.6198C68.2711 12.0313 69.2667 12.4831 70.4812 12.9816C71.8791 13.5485 73.0703 14.1446 74.0481 14.7701C75.026 15.3957 75.7727 16.1374 76.2938 17.0061C76.815 17.8749 77.0761 18.9631 77.0761 20.2663V20.2663ZM87.8212 18.6493C87.8567 18.6048 87.7667 14.4878 87.8067 14.4466L93.6725 8.30214H98.3606L90.6691 16.3394L98.864 26.995H94.0703L87.8212 18.6493V18.6493ZM85.6377 20.6953V26.995H81.5552V0.588455H85.6377V13.3867C85.6377 15.0156 85.5988 16.5729 85.6377 18.2203V20.6953V20.6953ZM112.806 15.564V14.591C112.806 13.2998 112.498 12.3789 111.876 11.8348C111.26 11.2842 110.389 11.0061 109.262 11.0061C108.303 11.0061 107.372 11.1452 106.472 11.4177C105.565 11.6892 104.689 12.0194 103.835 12.4191L102.514 9.59873C103.45 9.11221 104.516 8.71913 105.713 8.4118C106.917 8.10555 108.161 7.95461 109.458 7.95461C111.888 7.95461 113.725 8.47589 114.969 9.52386C116.214 10.5718 116.835 12.2051 116.835 14.4172V26.995H113.938L113.156 24.3376H113.014C112.468 25.0207 111.911 25.5767 111.331 26.0165C110.75 26.4629 110.087 26.793 109.328 27.0123C108.57 27.2328 107.646 27.3425 106.554 27.3425C105.411 27.3425 104.387 27.134 103.485 26.7235C102.585 26.3119 101.867 25.6863 101.352 24.8415C100.831 23.9955 100.571 22.9247 100.571 21.6324C100.571 19.7048 101.306 18.2583 102.781 17.2896C104.258 16.3188 106.49 15.7834 109.476 15.6791L110.606 15.6401V18.1486L110.306 18.1584C108.273 18.2246 106.842 18.5667 106.021 19.1716C105.201 19.7776 104.789 20.6072 104.789 21.6617C104.789 22.5826 105.068 23.2538 105.637 23.6773C106.206 24.0943 106.952 24.3082 107.877 24.3082C109.287 24.3082 110.46 23.9141 111.39 23.1333C112.326 22.3568 112.788 21.2045 112.788 19.6929V18.0769L112.806 15.564V15.564ZM128.807 11.838C129.529 11.3906 130.409 11.2092 131.59 11.2092C132.869 11.2092 133.824 11.5742 134.434 12.2974C135.05 13.0272 135.353 14.1099 135.353 15.564V26.995H139.435V14.8049C139.435 12.4136 138.831 10.6707 137.622 9.58144C136.413 8.49873 134.724 7.95461 132.561 7.95461C131.726 7.95461 130.926 8.06434 130.156 8.27828C129.679 8.41185 129.231 8.58338 128.812 8.79624L128.807 11.838ZM126.624 10.5446V17.7186V26.995H122.542V8.30214H126.624V10.5446ZM143.464 19.3508V15.9745H152.424V19.3508H143.464ZM156.992 26.995V2.18698H161.157V23.5318H168.762L170.205 26.995H156.992V26.995ZM189.558 20.15L188.479 16.6587L186.068 9.89419C185.973 9.59881 185.842 9.18831 185.671 8.64967C185.493 8.11646 185.321 7.5724 185.15 7.01096C184.972 6.45494 184.83 5.98575 184.711 5.59697C184.599 6.06068 184.457 6.57649 184.29 7.14989C184.119 7.71676 183.959 8.24999 183.804 8.74194C183.644 9.2404 183.525 9.6227 183.449 9.89419L181.013 16.6587L179.852 20.15L177.37 26.995H172.978L182.424 2.18698H187.04L196.467 26.995H192.04L189.558 20.15V20.15ZM199.821 2.18698H207.37C210.647 2.18698 213.117 2.6496 214.783 3.57594C216.447 4.50336 217.283 6.10082 217.283 8.37701C217.283 9.32724 217.111 10.1841 216.767 10.9421C216.429 11.7066 215.932 12.3386 215.286 12.8251C214.641 13.3171 213.841 13.6473 212.893 13.8211V13.9883C213.876 14.1566 214.753 14.4574 215.517 14.8864C216.287 15.3208 216.897 15.9343 217.342 16.739C217.786 17.5448 218.012 18.5862 218.012 19.8612C218.012 21.3783 217.644 22.6696 216.91 23.7349C216.175 24.8003 215.126 25.6115 213.769 26.161C212.406 26.717 210.795 26.995 208.934 26.995H199.821V2.18698V2.18698ZM208.194 15.7182L209.516 12.3507C210.483 12.3061 211.409 11.9163 211.903 11.5101C212.63 10.9117 212.993 10.0397 212.993 8.88638C212.993 7.71136 212.56 6.85994 211.701 6.3441C210.836 5.82392 209.467 5.56218 207.595 5.56218H203.987V12.4137L204.01 15.7182L203.987 23.5839H208.377C210.32 23.5839 211.684 23.219 212.472 22.4784C213.259 21.7432 213.65 20.7473 213.65 19.4898C213.65 18.7198 213.479 18.0542 213.124 17.4862C212.774 16.9194 212.193 16.4806 211.399 16.1721C210.598 15.8605 209.545 15.7182 208.194 15.7182V15.7182Z" fill="black"/>
<path   d="M61.2018 46.2047H60.2306V37.354H61.2018V46.2047ZM65.6243 39.8573C66.3854 39.8573 66.9499 40.0244 67.3166 40.3589C67.6867 40.6945 67.8711 41.2255 67.8711 41.9597V46.2047H67.1655L66.981 45.2871H66.9333C66.7544 45.5141 66.5677 45.7042 66.3755 45.8573C66.181 46.0104 65.9565 46.1276 65.7021 46.2047C65.4476 46.2818 65.1388 46.3209 64.7687 46.3209C64.3821 46.3209 64.0376 46.2547 63.7365 46.1211C63.4364 45.9897 63.1998 45.7877 63.0275 45.5173C62.8542 45.248 62.7674 44.9059 62.7674 44.4932C62.7674 43.8721 63.0198 43.3921 63.5231 43.0587C64.0276 42.7242 64.7964 42.5417 65.8276 42.5113L66.9277 42.4668V42.0835C66.9277 41.5427 66.811 41.1625 66.5721 40.9464C66.3354 40.7292 66.0021 40.6206 65.5732 40.6206C65.2398 40.6206 64.9198 40.6673 64.6176 40.7618C64.3165 40.8574 64.0276 40.9682 63.7564 41.0985L63.4598 40.3817C63.7475 40.2362 64.0775 40.1136 64.4486 40.0115C64.822 39.9083 65.2142 39.8573 65.6243 39.8573V39.8573ZM66.9155 43.1325L65.9444 43.1706C65.1499 43.202 64.5887 43.3302 64.262 43.5539C63.9364 43.7766 63.7742 44.0947 63.7742 44.5042C63.7742 44.8614 63.8853 45.1253 64.1053 45.2969C64.3275 45.4674 64.6198 45.5521 64.9853 45.5521C65.5509 45.5521 66.0144 45.399 66.3755 45.0927C66.7355 44.7843 66.9155 44.3216 66.9155 43.707V43.1325V43.1325ZM72.8803 39.8573C73.637 39.8573 74.2081 40.0386 74.5959 40.4013C74.9848 40.7619 75.1782 41.345 75.1782 42.1443V46.2047H74.2248V42.2062C74.2248 41.686 74.1037 41.2983 73.8615 41.0399C73.6193 40.7836 73.247 40.6532 72.747 40.6532C72.0403 40.6532 71.5435 40.8498 71.2569 41.2397C70.9691 41.6295 70.8268 42.1964 70.8268 42.9403V46.2047H69.8613V39.9745H70.6402L70.7868 40.8693H70.8379C70.9734 40.65 71.1458 40.4654 71.3569 40.3155C71.5647 40.1668 71.7991 40.0516 72.0591 39.9745C72.3202 39.8963 72.5936 39.8573 72.8803 39.8573V39.8573ZM79.4373 46.3209C78.6306 46.3209 77.9917 46.0516 77.5206 45.5141C77.0505 44.9744 76.8138 44.174 76.8138 43.113C76.8138 42.0389 77.0539 41.2277 77.535 40.6804C78.0172 40.1309 78.6573 39.8573 79.4551 39.8573C79.7929 39.8573 80.0862 39.9006 80.3384 39.9875C80.5907 40.0755 80.8096 40.1917 80.993 40.3394C81.173 40.4849 81.3263 40.65 81.4508 40.8357H81.5208C81.5052 40.7173 81.4908 40.5566 81.4752 40.3524C81.4597 40.1472 81.4508 39.9799 81.4508 39.8518V37.354H82.4163V46.2047H81.6374L81.493 45.3197H81.4508C81.3297 45.5065 81.1796 45.6748 80.9941 45.8258C80.8096 45.9778 80.5907 46.0984 80.3373 46.1874C80.0829 46.2765 79.7829 46.3209 79.4373 46.3209V46.3209ZM79.5884 45.5369C80.2718 45.5369 80.7541 45.3468 81.0386 44.9668C81.3219 44.5878 81.4629 44.0252 81.4629 43.2781V43.1065C81.4629 42.3127 81.3285 41.7055 81.0585 41.2809C80.7874 40.8552 80.2995 40.6424 79.5884 40.6424C78.9961 40.6424 78.5517 40.865 78.2573 41.3114C77.9617 41.7555 77.815 42.3659 77.815 43.1337C77.815 43.9003 77.9617 44.4932 78.2539 44.9102C78.5472 45.3272 78.9928 45.5369 79.5884 45.5369V45.5369ZM88.5846 44.5009C88.5846 44.8983 88.4834 45.2339 88.279 45.5043C88.0767 45.7758 87.7844 45.98 87.4066 46.1157C87.0277 46.2536 86.5767 46.3209 86.0522 46.3209C85.6077 46.3209 85.222 46.2861 84.8942 46.2188C84.5687 46.1504 84.2854 46.0537 84.0409 45.9289V45.059C84.3009 45.1839 84.6109 45.2979 84.972 45.3989C85.3321 45.5021 85.701 45.5521 86.0766 45.5521C86.6289 45.5521 87.0278 45.4652 87.2756 45.2925C87.5245 45.1177 87.6478 44.8787 87.6478 44.5801C87.6478 44.4096 87.5978 44.2575 87.4989 44.1283C87.4011 43.998 87.2345 43.8699 87.0022 43.7472C86.77 43.6234 86.4477 43.4876 86.0366 43.3399C85.6299 43.1879 85.2754 43.0369 84.9799 42.8871C84.6821 42.7383 84.4543 42.5537 84.2932 42.3387C84.1321 42.1226 84.0521 41.8413 84.0521 41.496C84.0521 40.9704 84.2687 40.5642 84.7065 40.2807C85.1432 39.9995 85.7165 39.8573 86.4255 39.8573C86.8088 39.8573 87.1688 39.8942 87.5044 39.968C87.84 40.0418 88.1534 40.1406 88.4457 40.2677L88.1178 41.0247C87.8556 40.9139 87.5734 40.8205 87.2756 40.7445C86.9755 40.6696 86.6722 40.6304 86.3622 40.6304C85.9155 40.6304 85.5744 40.7042 85.3355 40.8476C85.0977 40.9909 84.9765 41.1897 84.9765 41.4395C84.9765 41.6317 85.0321 41.7925 85.1432 41.9173C85.2543 42.0433 85.431 42.1595 85.6754 42.2703C85.9199 42.3811 86.2411 42.5091 86.64 42.6568C87.0411 42.8002 87.3855 42.9501 87.6766 43.1032C87.9666 43.2585 88.1912 43.4432 88.349 43.6625C88.5056 43.8797 88.5846 44.1588 88.5846 44.5009V44.5009ZM91.0968 37.354V41.9521C91.0968 42.1031 91.0913 42.2876 91.0791 42.507C91.0668 42.7242 91.0591 42.9165 91.0513 43.0837H91.0913C91.1724 42.9849 91.2913 42.8393 91.4491 42.6471C91.6058 42.4527 91.738 42.2974 91.848 42.1791L93.9649 39.9745H95.1004L92.5348 42.6351L95.286 46.2047H94.1237L91.8713 43.2541L91.0968 43.947V46.2047H90.1379V37.354H91.0968V37.354ZM98.7828 39.8573C99.544 39.8573 100.109 40.0244 100.475 40.3589C100.845 40.6945 101.03 41.2255 101.03 41.9597V46.2047H100.324L100.14 45.2871H100.092C99.9129 45.5141 99.7262 45.7042 99.534 45.8573C99.3395 46.0104 99.1151 46.1276 98.8606 46.2047C98.6062 46.2818 98.2972 46.3209 97.9272 46.3209C97.5405 46.3209 97.196 46.2547 96.8949 46.1211C96.5949 45.9897 96.3582 45.7877 96.186 45.5173C96.0127 45.248 95.926 44.9059 95.926 44.4932C95.926 43.8721 96.1782 43.3921 96.6816 43.0587C97.1861 42.7242 97.955 42.5417 98.9862 42.5113L100.086 42.4668V42.0835C100.086 41.5427 99.9696 41.1625 99.7307 40.9464C99.494 40.7292 99.1606 40.6206 98.7317 40.6206C98.3984 40.6206 98.0784 40.6673 97.7762 40.7618C97.475 40.8574 97.1861 40.9682 96.915 41.0985L96.6183 40.3817C96.9061 40.2362 97.2361 40.1136 97.6072 40.0115C97.9806 39.9083 98.3728 39.8573 98.7828 39.8573V39.8573ZM100.074 43.1325L99.1028 43.1706C98.3083 43.202 97.7472 43.3302 97.4206 43.5539C97.095 43.7766 96.9328 44.0947 96.9328 44.5042C96.9328 44.8614 97.0439 45.1253 97.2639 45.2969C97.4861 45.4674 97.7783 45.5521 98.1439 45.5521C98.7095 45.5521 99.1728 45.399 99.534 45.0927C99.894 44.7843 100.074 44.3216 100.074 43.707V43.1325V43.1325ZM106.017 39.8573C106.811 39.8573 107.445 40.1255 107.919 40.6598C108.392 41.1952 108.628 41.9988 108.628 43.0717C108.628 43.7819 108.519 44.376 108.302 44.8592C108.086 45.3414 107.78 45.7041 107.384 45.9506C106.992 46.1971 106.527 46.3209 105.993 46.3209C105.656 46.3209 105.358 46.2786 105.103 46.1906C104.846 46.1037 104.627 45.9853 104.443 45.8377C104.263 45.69 104.112 45.5292 103.991 45.3544H103.921C103.933 45.5021 103.948 45.6803 103.965 45.8888C103.983 46.0962 103.991 46.2786 103.991 46.4339V48.988H103.02V39.9745H103.816L103.945 40.8921H103.991C104.116 40.7043 104.266 40.5294 104.445 40.372C104.622 40.2145 104.841 40.0908 105.099 39.9974C105.358 39.904 105.663 39.8573 106.017 39.8573V39.8573ZM105.848 40.6532C105.404 40.6532 105.05 40.7369 104.779 40.9041C104.509 41.0714 104.312 41.3212 104.19 41.6535C104.064 41.9847 103.999 42.4006 103.991 42.9012V43.0837C103.991 43.6115 104.051 44.0556 104.168 44.4205C104.286 44.7854 104.483 45.0612 104.755 45.2513C105.03 45.4424 105.397 45.5369 105.858 45.5369C106.254 45.5369 106.584 45.4326 106.847 45.223C107.111 45.0145 107.308 44.7235 107.439 44.3488C107.568 43.9763 107.633 43.5452 107.633 43.0609C107.633 42.3246 107.487 41.7403 107.194 41.306C106.9 40.8705 106.451 40.6532 105.848 40.6532V40.6532ZM118.903 43.0782C118.903 43.5897 118.835 44.0459 118.701 44.4499C118.564 44.8517 118.368 45.1915 118.113 45.4673C117.856 45.7442 117.546 45.9561 117.185 46.1016C116.822 46.2471 116.411 46.3209 115.954 46.3209C115.527 46.3209 115.136 46.2471 114.783 46.1016C114.427 45.9561 114.12 45.7442 113.863 45.4673C113.605 45.1915 113.404 44.8517 113.263 44.4499C113.121 44.0459 113.05 43.5897 113.05 43.0782C113.05 42.394 113.169 41.8141 113.406 41.3352C113.643 40.8531 113.979 40.4882 114.42 40.2362C114.862 39.9843 115.386 39.8573 115.994 39.8573C116.575 39.8573 117.086 39.9843 117.521 40.2384C117.957 40.4926 118.297 40.8595 118.539 41.3406C118.782 41.8195 118.903 42.3984 118.903 43.0782V43.0782ZM114.051 43.0782C114.051 43.5788 114.119 44.0132 114.254 44.3803C114.39 44.7484 114.599 45.0341 114.884 45.2339C115.165 45.4359 115.53 45.5369 115.977 45.5369C116.418 45.5369 116.782 45.4359 117.068 45.2339C117.354 45.0341 117.563 44.7484 117.699 44.3803C117.835 44.0132 117.902 43.5788 117.902 43.0782C117.902 42.5808 117.835 42.1519 117.699 41.7892C117.563 41.4265 117.354 41.1463 117.071 40.9508C116.788 40.7521 116.421 40.6532 115.972 40.6532C115.308 40.6532 114.822 40.8694 114.514 41.2962C114.206 41.7252 114.051 42.3191 114.051 43.0782ZM122.352 49C121.514 49 120.869 48.8469 120.416 48.5418C119.961 48.2366 119.735 47.8098 119.735 47.2603C119.735 46.8705 119.862 46.5371 120.116 46.2612C120.371 45.9832 120.722 45.7986 121.173 45.7095C121.006 45.6346 120.863 45.5195 120.744 45.3686C120.626 45.2166 120.567 45.0417 120.567 44.8441C120.567 44.6171 120.633 44.4172 120.762 44.2445C120.891 44.0719 121.09 43.9068 121.357 43.7472C121.024 43.6158 120.754 43.3899 120.547 43.0761C120.339 42.759 120.235 42.393 120.235 41.9716C120.235 41.5275 120.331 41.1463 120.52 40.8303C120.71 40.5143 120.986 40.2732 121.345 40.1081C121.706 39.9409 122.144 39.8573 122.656 39.8573C122.768 39.8573 122.881 39.8616 122.995 39.8714C123.111 39.8812 123.22 39.8942 123.323 39.9116C123.429 39.93 123.52 39.9485 123.598 39.9723H125.787V40.5794L124.611 40.7217C124.728 40.8694 124.823 41.0474 124.901 41.2548C124.978 41.4633 125.018 41.6914 125.018 41.9466C125.018 42.5656 124.803 43.0565 124.372 43.4214C123.941 43.7863 123.35 43.9687 122.596 43.9687C122.418 43.9687 122.238 43.9535 122.051 43.9242C121.86 44.0252 121.715 44.1392 121.617 44.2641C121.519 44.39 121.469 44.5334 121.469 44.6963C121.469 44.819 121.506 44.9135 121.582 44.9873C121.658 45.059 121.766 45.1123 121.912 45.1427C122.054 45.1764 122.228 45.1915 122.428 45.1915H123.552C124.245 45.1915 124.778 45.3327 125.149 45.6183C125.518 45.9018 125.704 46.3177 125.704 46.8629C125.704 47.5514 125.417 48.0813 124.843 48.4483C124.269 48.8154 123.439 49 122.352 49V49ZM122.382 48.2605C122.911 48.2605 123.348 48.2083 123.693 48.1052C124.041 47.9998 124.301 47.8511 124.473 47.6545C124.647 47.4601 124.732 47.2277 124.732 46.9595C124.732 46.7097 124.674 46.5208 124.559 46.3926C124.442 46.2667 124.271 46.182 124.047 46.1385C123.82 46.094 123.546 46.0722 123.22 46.0722H122.114C121.828 46.0722 121.577 46.1179 121.363 46.2026C121.151 46.2905 120.986 46.4197 120.873 46.5891C120.757 46.7596 120.7 46.9736 120.7 47.2256C120.7 47.5633 120.845 47.8195 121.138 47.9966C121.426 48.1725 121.842 48.2605 122.382 48.2605V48.2605ZM122.632 43.2792C123.093 43.2792 123.441 43.1673 123.673 42.9403C123.905 42.7144 124.023 42.3854 124.023 41.9499C124.023 41.4862 123.903 41.1365 123.668 40.9062C123.431 40.6728 123.081 40.5566 122.621 40.5566C122.178 40.5566 121.837 40.6772 121.6 40.9172C121.361 41.1561 121.242 41.5058 121.242 41.9673C121.242 42.3886 121.361 42.7144 121.602 42.9403C121.842 43.1673 122.185 43.2792 122.632 43.2792V43.2792ZM132.524 39.8573C133.285 39.8573 133.849 40.0244 134.216 40.3589C134.586 40.6945 134.77 41.2255 134.77 41.9597V46.2047H134.065L133.88 45.2871H133.833C133.654 45.5141 133.467 45.7042 133.275 45.8573C133.08 46.0104 132.856 46.1276 132.601 46.2047C132.347 46.2818 132.038 46.3209 131.668 46.3209C131.281 46.3209 130.937 46.2547 130.636 46.1211C130.336 45.9897 130.099 45.7877 129.927 45.5173C129.754 45.248 129.667 44.9059 129.667 44.4932C129.667 43.8721 129.919 43.3921 130.422 43.0587C130.927 42.7242 131.696 42.5417 132.727 42.5113L133.827 42.4668V42.0835C133.827 41.5427 133.71 41.1625 133.472 40.9464C133.235 40.7292 132.901 40.6206 132.473 40.6206C132.139 40.6206 131.819 40.6673 131.517 40.7618C131.216 40.8574 130.927 40.9682 130.656 41.0985L130.359 40.3817C130.647 40.2362 130.977 40.1136 131.348 40.0115C131.721 39.9083 132.114 39.8573 132.524 39.8573V39.8573ZM133.815 43.1325L132.844 43.1706C132.049 43.202 131.488 43.3302 131.161 43.5539C130.836 43.7766 130.674 44.0947 130.674 44.5042C130.674 44.8614 130.785 45.1253 131.005 45.2969C131.227 45.4674 131.519 45.5521 131.885 45.5521C132.45 45.5521 132.914 45.399 133.275 45.0927C133.635 44.7843 133.815 44.3216 133.815 43.707V43.1325V43.1325ZM139.659 39.8573C139.785 39.8573 139.921 39.8638 140.06 39.8768C140.199 39.8909 140.323 39.9083 140.431 39.9311L140.31 40.8063C140.204 40.7814 140.089 40.7608 139.96 40.7445C139.833 40.7293 139.712 40.7217 139.599 40.7217C139.342 40.7217 139.102 40.7716 138.875 40.8726C138.647 40.9736 138.448 41.117 138.277 41.306C138.107 41.4917 137.974 41.7186 137.876 41.9814C137.78 42.2453 137.732 42.5385 137.732 42.8599V46.2047H136.761V39.9745H137.563L137.668 41.1191H137.707C137.841 40.8878 137.999 40.6772 138.184 40.4871C138.371 40.2949 138.587 40.1406 138.834 40.0288C139.081 39.9137 139.354 39.8573 139.659 39.8573V39.8573ZM142.59 37.354V41.9521C142.59 42.1031 142.584 42.2876 142.572 42.507C142.56 42.7242 142.552 42.9165 142.544 43.0837H142.584C142.665 42.9849 142.784 42.8393 142.942 42.6471C143.099 42.4527 143.231 42.2974 143.341 42.1791L145.458 39.9745H146.593L144.028 42.6351L146.779 46.2047H145.617L143.364 43.2541L142.59 43.947V46.2047H141.631V37.354H142.59V37.354ZM148.857 39.9745V46.2047H147.891V39.9745H148.857ZM148.386 37.6386C148.545 37.6386 148.681 37.6897 148.795 37.7907C148.91 37.8916 148.968 38.047 148.968 38.2598C148.968 38.4683 148.91 38.6235 148.795 38.7256C148.681 38.8288 148.545 38.8799 148.386 38.8799C148.219 38.8799 148.08 38.8288 147.969 38.7256C147.859 38.6235 147.803 38.4683 147.803 38.2598C147.803 38.047 147.859 37.8916 147.969 37.7907C148.08 37.6897 148.219 37.6386 148.386 37.6386ZM152.959 45.5488C153.118 45.5488 153.281 45.5347 153.448 45.5075C153.615 45.4804 153.75 45.45 153.855 45.4109V46.145C153.743 46.1949 153.587 46.2362 153.387 46.271C153.188 46.3036 152.992 46.3209 152.803 46.3209C152.465 46.3209 152.159 46.2634 151.884 46.1483C151.607 46.0321 151.387 45.8356 151.221 45.5586C151.057 45.2828 150.976 44.8984 150.976 44.4097V40.7141H150.068V40.2536L150.981 39.8833L151.365 38.5301H151.947V39.9745H153.814V40.7141H151.947V44.3825C151.947 44.7724 152.038 45.0634 152.223 45.2578C152.407 45.4522 152.654 45.5488 152.959 45.5488ZM157.603 39.8573C158.145 39.8573 158.612 39.9756 159 40.2113C159.386 40.4459 159.684 40.776 159.889 41.1984C160.095 41.6219 160.199 42.1171 160.199 42.684V43.2705H155.794C155.806 44.0013 155.991 44.5573 156.352 44.9396C156.713 45.3219 157.222 45.5141 157.877 45.5141C158.281 45.5141 158.637 45.4772 158.947 45.4055C159.257 45.3327 159.579 45.2284 159.913 45.0862V45.917C159.591 46.0571 159.271 46.1602 158.955 46.2243C158.64 46.2884 158.266 46.3209 157.835 46.3209C157.224 46.3209 156.69 46.1993 156.233 45.9539C155.777 45.7095 155.423 45.3512 155.17 44.8756C154.919 44.4021 154.793 43.8211 154.793 43.1337C154.793 42.4647 154.908 41.8825 155.138 41.3906C155.37 40.8997 155.696 40.5219 156.117 40.2558C156.536 39.9898 157.033 39.8573 157.603 39.8573V39.8573ZM157.591 40.6304C157.075 40.6304 156.664 40.7966 156.357 41.1267C156.052 41.459 155.869 41.9205 155.812 42.5124H159.186C159.182 42.1399 159.122 41.812 159.008 41.5286C158.894 41.2451 158.721 41.0258 158.486 40.8672C158.254 40.7097 157.956 40.6304 157.591 40.6304ZM162.799 37.354V41.9521C162.799 42.1031 162.793 42.2876 162.781 42.507C162.769 42.7242 162.761 42.9165 162.753 43.0837H162.793C162.874 42.9849 162.993 42.8393 163.151 42.6471C163.308 42.4527 163.44 42.2974 163.55 42.1791L165.667 39.9745H166.802L164.237 42.6351L166.988 46.2047H165.826L163.573 43.2541L162.799 43.947V46.2047H161.84V37.354H162.799V37.354ZM170.159 45.5488C170.318 45.5488 170.481 45.5347 170.648 45.5075C170.815 45.4804 170.95 45.45 171.055 45.4109V46.145C170.943 46.1949 170.787 46.2362 170.587 46.271C170.388 46.3036 170.191 46.3209 170.002 46.3209C169.665 46.3209 169.359 46.2634 169.083 46.1483C168.807 46.0321 168.587 45.8356 168.421 45.5586C168.257 45.2828 168.176 44.8984 168.176 44.4097V40.7141H167.268V40.2536L168.181 39.8833L168.565 38.5301H169.147V39.9745H171.014V40.7141H169.147V44.3825C169.147 44.7724 169.238 45.0634 169.422 45.2578C169.607 45.4522 169.854 45.5488 170.159 45.5488ZM177.613 39.9745V46.2047H176.823L176.682 45.3316H176.629C176.498 45.5466 176.328 45.7291 176.117 45.8768C175.91 46.0267 175.673 46.1364 175.411 46.2102C175.148 46.2841 174.871 46.3209 174.576 46.3209C174.072 46.3209 173.649 46.2416 173.307 46.082C172.966 45.9234 172.709 45.677 172.537 45.3425C172.364 45.0091 172.278 44.5801 172.278 44.0578V39.9745H173.256V43.9904C173.256 44.5085 173.375 44.8962 173.615 45.1525C173.855 45.4087 174.223 45.5369 174.715 45.5369C175.188 45.5369 175.565 45.45 175.847 45.2752C176.127 45.1003 176.332 44.8441 176.455 44.5042C176.581 44.1653 176.642 43.7494 176.642 43.2564V39.9745H177.613V39.9745ZM182.554 39.8573C182.681 39.8573 182.816 39.8638 182.955 39.8768C183.094 39.8909 183.219 39.9083 183.327 39.9311L183.205 40.8063C183.1 40.7814 182.984 40.7608 182.855 40.7445C182.729 40.7293 182.608 40.7217 182.494 40.7217C182.238 40.7217 181.998 40.7716 181.771 40.8726C181.543 40.9736 181.344 41.117 181.173 41.306C181.003 41.4917 180.87 41.7186 180.772 41.9814C180.675 42.2453 180.628 42.5385 180.628 42.8599V46.2047H179.656V39.9745H180.459L180.564 41.1191H180.603C180.736 40.8878 180.895 40.6772 181.08 40.4871C181.266 40.2949 181.483 40.1406 181.73 40.0288C181.976 39.9137 182.25 39.8573 182.554 39.8573V39.8573ZM189.681 45.5488C189.84 45.5488 190.004 45.5347 190.17 45.5075C190.337 45.4804 190.473 45.45 190.577 45.4109V46.145C190.465 46.1949 190.309 46.2362 190.109 46.271C189.91 46.3036 189.714 46.3209 189.525 46.3209C189.187 46.3209 188.881 46.2634 188.606 46.1483C188.329 46.0321 188.109 45.8356 187.943 45.5586C187.779 45.2828 187.698 44.8984 187.698 44.4097V40.7141H186.79V40.2536L187.703 39.8833L188.087 38.5301H188.669V39.9745H190.536V40.7141H188.669V44.3825C188.669 44.7724 188.76 45.0634 188.945 45.2578C189.129 45.4522 189.376 45.5488 189.681 45.5488ZM192.836 39.9745V46.2047H191.87V39.9745H192.836ZM192.365 37.6386C192.524 37.6386 192.66 37.6897 192.774 37.7907C192.889 37.8916 192.947 38.047 192.947 38.2598C192.947 38.4683 192.889 38.6235 192.774 38.7256C192.66 38.8288 192.524 38.8799 192.365 38.8799C192.198 38.8799 192.059 38.8288 191.948 38.7256C191.838 38.6235 191.783 38.4683 191.783 38.2598C191.783 38.047 191.838 37.8916 191.948 37.7907C192.059 37.6897 192.198 37.6386 192.365 37.6386ZM195.851 46.2047H194.879V37.354H195.851V46.2047ZM201.129 37.8895H203.538C204.601 37.8895 205.399 38.0448 205.936 38.3554C206.47 38.666 206.738 39.1959 206.738 39.9431C206.738 40.2656 206.674 40.5545 206.549 40.8086C206.422 41.0649 206.239 41.2766 205.999 41.4438C205.759 41.61 205.462 41.7273 205.109 41.7914V41.8467C205.48 41.9032 205.81 42.0085 206.098 42.1595C206.385 42.3126 206.61 42.5243 206.773 42.798C206.937 43.0695 207.018 43.417 207.018 43.8384C207.018 44.3509 206.897 44.7821 206.655 45.1351C206.412 45.488 206.068 45.7541 205.628 45.9354C205.184 46.1157 204.66 46.2047 204.057 46.2047H201.129V37.8895V37.8895ZM202.118 41.4547H203.747C204.488 41.4547 205.002 41.3352 205.286 41.0963C205.572 40.8574 205.714 40.5099 205.714 40.0494C205.714 39.576 205.544 39.235 205.204 39.0265C204.864 38.8191 204.324 38.7148 203.584 38.7148H202.118V41.4547ZM202.118 42.2681V45.3794H203.888C204.642 45.3794 205.179 45.2339 205.492 44.945C205.807 44.6561 205.966 44.2642 205.966 43.7711C205.966 43.4562 205.893 43.1868 205.752 42.9631C205.61 42.7383 205.381 42.5678 205.066 42.4473C204.75 42.3289 204.327 42.2681 203.8 42.2681H202.118V42.2681ZM208.827 46.2047V37.8895H209.816V46.2047H208.827ZM215.898 46.2047L213.04 38.8441H212.995C213.01 38.9994 213.023 39.1904 213.034 39.413C213.046 39.6378 213.056 39.8811 213.064 40.145C213.072 40.4089 213.076 40.6772 213.076 40.9487V46.2047H212.156V37.8895H213.622L216.317 44.8049H216.357L219.092 37.8895H220.548V46.2047H219.569V40.8803C219.569 40.6337 219.572 40.3872 219.58 40.1396C219.589 39.8909 219.599 39.6563 219.61 39.4348C219.622 39.2111 219.634 39.0188 219.644 38.8559H219.599L216.706 46.2047H215.898V46.2047Z" fill="black"/>
</svg>
